<?xml version="1.0" encoding="utf-8"?>
<!-- Generator: Adobe Illustrator 22.0.1, SVG Export Plug-In . SVG Version: 6.00 Build 0)  -->
<svg version="1.1" id="Laag_1" xmlns="http://www.w3.org/2000/svg" xmlns:xlink="http://www.w3.org/1999/xlink" x="0px" y="0px"
	 viewBox="0 0 228 50.4" style="enable-background:new 0 0 228 50.4;" xml:space="preserve">
<style type="text/css">
	.st0{fill:#FF5A63;}
</style>
<path class="st0" d="M64.5,36.7c-1.3,0-2.3-0.4-3-1.2s-1.1-1.9-1.1-3.3V17.5H68v-4.9h-7.6V7h-6.1v25c0,3,0.9,5.5,2.7,7.2
	c1.8,1.8,4,2.7,6.6,2.7c2.6,0,4.9-1,7.1-2.9l-2.5-4.3C67.1,36.1,65.8,36.7,64.5,36.7z"/>
<path class="st0" d="M83.8,14c-1.7,1.2-3,2.6-4,4.5v-5.8h-6.1v28.9h6.1V29.2c0-3.3,0.8-5.9,2.3-7.9s3.8-2.9,6.8-2.9
	c0.1,0,0.2,0,0.3,0l-0.1-6.1C87.3,12.3,85.5,12.9,83.8,14z"/>
<rect x="93.4" y="12.7" class="st0" width="6.1" height="28.9"/>
<path class="st0" d="M96.5,1.5c-1.1,0-2,0.4-2.7,1.1c-0.8,0.8-1.1,1.7-1.1,2.7s0.4,2,1.1,2.7c0.8,0.8,1.7,1.1,2.7,1.1s2-0.4,2.7-1.1
	c0.8-0.8,1.1-1.7,1.1-2.7s-0.4-2-1.1-2.7C98.4,1.8,97.5,1.5,96.5,1.5z"/>
<path class="st0" d="M195.5,28.3c0,2.7-0.8,4.7-2.3,6.1c-1.6,1.4-3.4,2.1-5.5,2.1c-4.4,0-6.6-2.7-6.6-8V12.7H175v17.7
	c0,3.8,1,6.6,3,8.6s4.6,3,7.9,3c2,0,3.8-0.5,5.6-1.5c1.7-1,3.1-2.4,4-4.2v5.3h6.1V12.7h-6.1V28.3z"/>
<path class="st0" d="M223.9,12.2c-1.9,0-3.7,0.6-5.4,1.8c-1.7,1.2-3,2.6-4,4.5v-5.8h-6.1v28.9h6.1V29.2c0-3.3,0.8-5.9,2.3-7.9
	s3.8-2.9,6.8-2.9c0.1,0,0.2,0,0.3,0L223.9,12.2z"/>
<path class="st0" d="M131.5,16.2c-2.7-2.7-6.1-4-9.9-4c-3.9,0-7,1.8-9.4,5.5v-5h-6.1v35h0.9h0.8c2.4,0,4.3-1.9,4.3-4.3V42v-4.8
	c2.9,3.2,6.2,4.8,9.8,4.8s6.8-1.4,9.6-4.2c2.7-2.8,4.1-6.4,4.1-10.9C135.7,22.5,134.3,18.9,131.5,16.2z M126.9,33.9
	c-1.8,1.7-3.9,2.6-6.2,2.6c-2.4,0-4.4-0.9-6.1-2.6c-1.7-1.8-2.5-4-2.5-6.8c0-2.7,0.8-5,2.5-6.9c1.7-1.8,3.7-2.7,6.1-2.7
	c2.4,0,4.5,0.9,6.2,2.7c1.7,1.8,2.6,4.1,2.6,6.9C129.6,29.9,128.7,32.2,126.9,33.9z"/>
<path class="st0" d="M166.1,16.2c-2.7-2.7-6.1-4-9.9-4c-3.9,0-7,1.8-9.4,5.5v-5h-6.1v35h0.9h0.8c2.4,0,4.3-1.9,4.3-4.3V42v-4.8
	c2.9,3.2,6.2,4.8,9.8,4.8c3.6,0,6.8-1.4,9.6-4.2c2.7-2.8,4.1-6.4,4.1-10.9C170.3,22.5,168.9,18.9,166.1,16.2z M161.5,33.9
	c-1.8,1.7-3.9,2.6-6.2,2.6c-2.4,0-4.4-0.9-6.1-2.6c-1.7-1.8-2.5-4-2.5-6.8c0-2.7,0.8-5,2.5-6.9c1.7-1.8,3.7-2.7,6.1-2.7
	s4.5,0.9,6.2,2.7c1.7,1.8,2.6,4.1,2.6,6.9C164.2,29.9,163.3,32.2,161.5,33.9z"/>
<path class="st0" d="M35.6,6.1C27.5-2,14.2-2,6.1,6.2C-2,14.3-2,27.6,6.2,35.8l12.9,12.9c1,1,2.5,1,3.5,0c0.5-0.5,0.7-1.1,0.7-1.8
	v-5.8l0,0V21.2c0-0.6-0.3-1.2-0.7-1.7c-1-1-2.5-1-3.5,0c-0.4,0.4-0.7,1-0.7,1.7v19.9l-8.7-8.7c-3-3-4.7-7.1-4.7-11.3
	c0-4.3,1.6-8.3,4.7-11.3c3-3,7.1-4.7,11.3-4.7c4.3,0,8.3,1.6,11.3,4.7c3,3,4.7,7.1,4.6,11.3c0,4.3-1.7,8.3-4.8,11.3l-3.8,3.8v6.9
	l7.2-7.2C43.7,27.4,43.8,14.2,35.6,6.1z"/>
</svg>
