<?xml version="1.0" encoding="utf-8"?>
<!-- Generator: Adobe Illustrator 19.2.0, SVG Export Plug-In . SVG Version: 6.00 Build 0)  -->
<svg version="1.1" id="Laag_1" xmlns="http://www.w3.org/2000/svg" xmlns:xlink="http://www.w3.org/1999/xlink" x="0px" y="0px"
	 viewBox="0 0 456 268" style="enable-background:new 0 0 456 268;" xml:space="preserve">
<style type="text/css">
	.st0{fill:#1D1D1B;}
	.st1{fill:#FFFFFF;}
	.st2{fill:#FF5A63;}
</style>
<rect x="-477" y="414" class="st0" width="700" height="200"/>
<rect x="223" y="414" class="st0" width="700" height="200"/>
<rect x="-477" y="-236" class="st1" width="1400" height="650"/>
<path class="st2" d="M175.5,131.5c-1.3,0-2.3-0.4-3-1.2c-0.7-0.8-1.1-1.9-1.1-3.3v-14.7h7.6v-4.9h-7.6v-5.6h-6.1v25
	c0,3,0.9,5.5,2.7,7.2c1.8,1.8,4,2.7,6.6,2.7c2.6,0,4.9-1,7.1-2.9l-2.5-4.3C178.1,130.9,176.8,131.5,175.5,131.5z"/>
<path class="st2" d="M194.8,108.8c-1.7,1.2-3,2.6-4,4.5v-5.8h-6.1v28.9h6.1V124c0-3.3,0.8-5.9,2.3-7.9c1.5-2,3.8-2.9,6.8-2.9
	c0.1,0,0.2,0,0.3,0l-0.1-6.1C198.3,107.1,196.5,107.7,194.8,108.8z"/>
<rect x="204.4" y="107.5" class="st2" width="6.1" height="28.9"/>
<path class="st2" d="M207.5,96.3c-1.1,0-2,0.4-2.7,1.1c-0.8,0.8-1.1,1.7-1.1,2.7c0,1,0.4,2,1.1,2.7c0.8,0.8,1.7,1.1,2.7,1.1
	c1,0,2-0.4,2.7-1.1c0.8-0.8,1.1-1.7,1.1-2.7c0-1-0.4-2-1.1-2.7C209.4,96.6,208.5,96.3,207.5,96.3z"/>
<path class="st2" d="M306.5,123.1c0,2.7-0.8,4.7-2.3,6.1c-1.6,1.4-3.4,2.1-5.5,2.1c-4.4,0-6.6-2.7-6.6-8v-15.8H286v17.7
	c0,3.8,1,6.6,3,8.6c2,2,4.6,3,7.9,3c2,0,3.8-0.5,5.6-1.5c1.7-1,3.1-2.4,4-4.2v5.3h6.1v-28.9h-6.1V123.1z"/>
<path class="st2" d="M334.9,107c-1.9,0-3.7,0.6-5.4,1.8c-1.7,1.2-3,2.6-4,4.5v-5.8h-6.1v28.9h6.1V124c0-3.3,0.8-5.9,2.3-7.9
	c1.5-2,3.8-2.9,6.8-2.9c0.1,0,0.2,0,0.3,0L334.9,107z"/>
<path class="st2" d="M242.5,111c-2.7-2.7-6.1-4-9.9-4c-3.9,0-7,1.8-9.4,5.5v-5h-6.1v35h0.9h0.8c2.4,0,4.3-1.9,4.3-4.3v-1.4V132
	c2.9,3.2,6.2,4.8,9.8,4.8c3.6,0,6.8-1.4,9.6-4.2c2.7-2.8,4.1-6.4,4.1-10.9C246.7,117.3,245.3,113.7,242.5,111z M237.9,128.7
	c-1.8,1.7-3.9,2.6-6.2,2.6c-2.4,0-4.4-0.9-6.1-2.6c-1.7-1.8-2.5-4-2.5-6.8c0-2.7,0.8-5,2.5-6.9c1.7-1.8,3.7-2.7,6.1-2.7
	c2.4,0,4.5,0.9,6.2,2.7c1.7,1.8,2.6,4.1,2.6,6.9C240.6,124.7,239.7,127,237.9,128.7z"/>
<path class="st2" d="M277.1,111c-2.7-2.7-6.1-4-9.9-4c-3.9,0-7,1.8-9.4,5.5v-5h-6.1v35h0.9h0.8c2.4,0,4.3-1.9,4.3-4.3v-1.4V132
	c2.9,3.2,6.2,4.8,9.8,4.8c3.6,0,6.8-1.4,9.6-4.2c2.7-2.8,4.1-6.4,4.1-10.9C281.3,117.3,279.9,113.7,277.1,111z M272.5,128.7
	c-1.8,1.7-3.9,2.6-6.2,2.6c-2.4,0-4.4-0.9-6.1-2.6c-1.7-1.8-2.5-4-2.5-6.8c0-2.7,0.8-5,2.5-6.9c1.7-1.8,3.7-2.7,6.1-2.7
	c2.4,0,4.5,0.9,6.2,2.7c1.7,1.8,2.6,4.1,2.6,6.9C275.2,124.7,274.3,127,272.5,128.7z"/>
<path class="st2" d="M146.6,100.9c-8.1-8.1-21.4-8.1-29.5,0.1c-8.1,8.1-8.1,21.4,0.1,29.6c0,0,12.9,12.9,12.9,12.9c1,1,2.5,1,3.5,0
	c0.5-0.5,0.7-1.1,0.7-1.8l0-5.8l0,0l0-19.9c0-0.6-0.3-1.2-0.7-1.7c-1-1-2.5-1-3.5,0c-0.4,0.4-0.7,1-0.7,1.7l0,19.9l-8.7-8.7
	c-3-3-4.7-7.1-4.7-11.3c0-4.3,1.6-8.3,4.7-11.3c3-3,7.1-4.7,11.3-4.7c4.3,0,8.3,1.6,11.3,4.7c3,3,4.7,7.1,4.6,11.3
	c0,4.3-1.7,8.3-4.8,11.3l-3.8,3.8v6.9l7.2-7.2C154.7,122.2,154.8,109,146.6,100.9z"/>
<path class="st1" d="M185.3,511c-1,0-1.8-0.3-2.4-1c-0.6-0.6-0.9-1.5-0.9-2.6v-11.7h6v-3.9h-6v-4.5h-4.8v19.9c0,2.4,0.7,4.3,2.2,5.8
	c1.5,1.4,3.2,2.1,5.3,2.1c2.1,0,3.9-0.8,5.6-2.3l-2-3.4C187.3,510.5,186.3,511,185.3,511z"/>
<path class="st1" d="M200.6,493c-1.3,0.9-2.4,2.1-3.2,3.5v-4.6h-4.8v22.9h4.8V505c0-2.6,0.6-4.7,1.8-6.3c1.2-1.6,3-2.3,5.4-2.3
	c0.1,0,0.2,0,0.3,0l0-4.9C203.3,491.6,201.9,492.1,200.6,493z"/>
<rect x="208.2" y="491.9" class="st1" width="4.8" height="22.9"/>
<path class="st1" d="M210.7,483c-0.8,0-1.6,0.3-2.2,0.9c-0.6,0.6-0.9,1.3-0.9,2.2c0,0.8,0.3,1.6,0.9,2.2c0.6,0.6,1.3,0.9,2.2,0.9
	c0.8,0,1.6-0.3,2.2-0.9c0.6-0.6,0.9-1.3,0.9-2.2c0-0.8-0.3-1.6-0.9-2.2C212.2,483.3,211.5,483,210.7,483z"/>
<path class="st1" d="M289.4,504.3c0,2.1-0.6,3.7-1.9,4.9c-1.2,1.1-2.7,1.7-4.4,1.7c-3.5,0-5.3-2.1-5.3-6.3v-12.6h-4.8V506
	c0,3,0.8,5.3,2.4,6.9c1.6,1.6,3.7,2.4,6.3,2.4c1.6,0,3.1-0.4,4.4-1.2c1.4-0.8,2.4-1.9,3.2-3.3v4.2h4.8v-22.9h-4.8V504.3z"/>
<path class="st1" d="M311.9,491.6c-1.5,0-2.9,0.5-4.3,1.4c-1.3,0.9-2.4,2.1-3.2,3.5v-4.6h-4.8v22.9h4.8V505c0-2.6,0.6-4.7,1.8-6.3
	c1.2-1.6,3-2.3,5.4-2.3c0.1,0,0.2,0,0.3,0L311.9,491.6z"/>
<path class="st1" d="M238.5,494.8c-2.2-2.1-4.8-3.2-7.9-3.2c-3.1,0-5.6,1.5-7.5,4.4v-4h-4.8v27.8h0.7h0.7c1.9,0,3.4-1.5,3.4-3.4
	v-1.1v-3.8c2.3,2.5,4.9,3.8,7.8,3.8c2.9,0,5.4-1.1,7.6-3.3c2.2-2.2,3.3-5.1,3.3-8.6C241.8,499.7,240.7,496.9,238.5,494.8z
	 M234.8,508.8c-1.4,1.4-3.1,2.1-5,2.1c-1.9,0-3.5-0.7-4.8-2.1c-1.3-1.4-2-3.2-2-5.4c0-2.2,0.7-4,2-5.5c1.3-1.5,2.9-2.2,4.9-2.2
	c1.9,0,3.6,0.7,5,2.2c1.4,1.5,2.1,3.3,2.1,5.5C237,505.7,236.3,507.4,234.8,508.8z"/>
<path class="st1" d="M266,494.8c-2.2-2.1-4.8-3.2-7.9-3.2c-3.1,0-5.6,1.5-7.5,4.4v-4h-4.8v27.8h0.7h0.7c1.9,0,3.4-1.5,3.4-3.4v-1.1
	v-3.8c2.3,2.5,4.9,3.8,7.8,3.8c2.9,0,5.4-1.1,7.6-3.3c2.2-2.2,3.3-5.1,3.3-8.6C269.3,499.7,268.2,496.9,266,494.8z M262.4,508.8
	c-1.4,1.4-3.1,2.1-5,2.1c-1.9,0-3.5-0.7-4.8-2.1c-1.3-1.4-2-3.2-2-5.4c0-2.2,0.7-4,2-5.5c1.3-1.5,2.9-2.2,4.9-2.2
	c1.9,0,3.6,0.7,5,2.2c1.4,1.5,2.1,3.3,2.1,5.5C264.5,505.7,263.8,507.4,262.4,508.8z"/>
<path class="st1" d="M162.3,486.7c-6.5-6.5-17-6.4-23.5,0.1c-6.5,6.5-6.4,17,0,23.5c0,0,10.2,10.2,10.2,10.2c0.8,0.8,2,0.8,2.8,0
	c0.4-0.4,0.6-0.9,0.6-1.4l0-4.6l0,0l0-15.8c0-0.5-0.2-1-0.6-1.3c-0.8-0.8-2-0.8-2.7,0c-0.4,0.4-0.6,0.8-0.6,1.3l0,15.8l-6.9-6.9
	c-2.4-2.4-3.8-5.6-3.8-9c0-3.4,1.3-6.6,3.7-9c2.4-2.4,5.6-3.8,9-3.8c3.4,0,6.6,1.3,9,3.7c2.4,2.4,3.7,5.6,3.7,9c0,3.4-1.4,6.6-3.8,9
	l-3,3v5.5l5.7-5.8C168.7,503.7,168.8,493.1,162.3,486.7z"/>
</svg>
