<svg id="Layer_1" data-name="Layer 1" xmlns="http://www.w3.org/2000/svg" viewBox="0 0 349.9 77.23"><defs><style>.cls-1{fill:#fff;}</style></defs><title>trippur-white</title><path class="cls-1" d="M169.76,137.32a5.88,5.88,0,0,1-4.69-1.87,7.57,7.57,0,0,1-1.72-5.16v-23h11.88V99.65H163.35V90.9h-9.54V130c0,4.68,1.41,8.59,4.22,11.25a14.07,14.07,0,0,0,10.32,4.22c4.06,0,7.66-1.56,11.1-4.53l-3.91-6.72A7.3,7.3,0,0,1,169.76,137.32Z" transform="translate(-69 -80.02)"/><path class="cls-1" d="M199.92,101.84a19.44,19.44,0,0,0-6.25,7V99.81h-9.53V145h9.53V125.6c0-5.16,1.25-9.22,3.59-12.35s5.94-4.53,10.63-4.53h.47l-.15-9.54A15.28,15.28,0,0,0,199.92,101.84Z" transform="translate(-69 -80.02)"/><rect class="cls-1" x="145.93" y="19.79" width="9.53" height="45.17"/><path class="cls-1" d="M219.77,82.3A5.8,5.8,0,0,0,215.55,84a5.67,5.67,0,0,0-1.72,4.22,6,6,0,0,0,1.72,4.22,5.67,5.67,0,0,0,4.22,1.72A6,6,0,0,0,224,92.46a5.65,5.65,0,0,0,1.72-4.22A6,6,0,0,0,224,84,5.65,5.65,0,0,0,219.77,82.3Z" transform="translate(-69 -80.02)"/><path class="cls-1" d="M374.51,124.19c0,4.22-1.25,7.35-3.59,9.54a12.65,12.65,0,0,1-8.6,3.28c-6.88,0-10.32-4.22-10.32-12.51V99.81h-9.53v27.66c0,5.94,1.56,10.32,4.69,13.45s7.19,4.69,12.35,4.69a17.56,17.56,0,0,0,8.75-2.35,15.82,15.82,0,0,0,6.25-6.56V145H384V99.81h-9.53Z" transform="translate(-69 -80.02)"/><path class="cls-1" d="M418.9,99a14.43,14.43,0,0,0-8.44,2.81,19.44,19.44,0,0,0-6.25,7V99.81h-9.54V145h9.54V125.6c0-5.16,1.25-9.22,3.59-12.35s5.94-4.53,10.63-4.53h.47Z" transform="translate(-69 -80.02)"/><path class="cls-1" d="M274.48,105.28A21.24,21.24,0,0,0,259,99c-6.09,0-10.94,2.81-14.69,8.59V99.81h-9.53v54.7h2.65a6.67,6.67,0,0,0,6.73-6.72V138.1c4.53,5,9.69,7.51,15.31,7.51s10.63-2.19,15-6.57c4.22-4.38,6.41-10,6.41-17C281,115.13,278.85,109.5,274.48,105.28ZM267.29,133A13.93,13.93,0,0,1,257.6,137a13,13,0,0,1-9.54-4.06,14.69,14.69,0,0,1-3.9-10.63,15.58,15.58,0,0,1,3.9-10.79,12.61,12.61,0,0,1,9.54-4.22,12.93,12.93,0,0,1,9.69,4.22,15.18,15.18,0,0,1,4.06,10.79A13.37,13.37,0,0,1,267.29,133Z" transform="translate(-69 -80.02)"/><path class="cls-1" d="M328.56,105.28A21.24,21.24,0,0,0,313.08,99c-6.09,0-10.94,2.81-14.69,8.59V99.81h-9.53v54.7h2.65a6.67,6.67,0,0,0,6.73-6.72V138.1c4.53,5,9.69,7.51,15.31,7.51s10.63-2.19,15-6.57c4.22-4.38,6.41-10,6.41-17C335.12,115.13,332.93,109.5,328.56,105.28ZM321.37,133a13.93,13.93,0,0,1-9.69,4.06,13,13,0,0,1-9.54-4.06,14.69,14.69,0,0,1-3.9-10.63,15.58,15.58,0,0,1,3.9-10.79,12.61,12.61,0,0,1,9.54-4.22,12.93,12.93,0,0,1,9.69,4.22,15.13,15.13,0,0,1,4.06,10.79A13.37,13.37,0,0,1,321.37,133Z" transform="translate(-69 -80.02)"/><path class="cls-1" d="M124.58,89.49a32.66,32.66,0,0,0-45.95,46.42L98.8,156.08a3.83,3.83,0,0,0,6.56-2.82V144.2h0V113.09a4.46,4.46,0,0,0-1.09-2.65,3.84,3.84,0,0,0-6.57,2.65V144.2L84.1,130.6a25.1,25.1,0,0,1-7.34-17.66A24.21,24.21,0,0,1,84.1,95.28a25.11,25.11,0,0,1,17.66-7.35,24.86,24.86,0,0,1,17.35,42.67l-5.94,5.94v10.78l11.26-11.25C137.25,122.79,137.4,102.15,124.58,89.49Z" transform="translate(-69 -80.02)"/></svg>